<svg xmlns="http://www.w3.org/2000/svg" xmlns:xlink="http://www.w3.org/1999/xlink" width="193" zoomAndPan="magnify" viewBox="0 0 144.75 168.75" height="225" preserveAspectRatio="xMidYMid meet" version="1.0"><defs><g/><clipPath id="abf82aacb0"><path d="M 3 0.0195312 L 141.363281 0.0195312 L 141.363281 138.53125 L 3 138.53125 Z M 3 0.0195312 " clip-rule="nonzero"/></clipPath><clipPath id="7c7346cdab"><path d="M 3 43 L 54 43 L 54 138.53125 L 3 138.53125 Z M 3 43 " clip-rule="nonzero"/></clipPath><clipPath id="d6db585048"><path d="M 85 0.0195312 L 141.363281 0.0195312 L 141.363281 92 L 85 92 Z M 85 0.0195312 " clip-rule="nonzero"/></clipPath></defs><path fill="#ffffff" d="M 5.753906 2.964844 L 138.457031 135.65625 " fill-opacity="1" fill-rule="nonzero"/><g clip-path="url(#abf82aacb0)"><path fill="#ffffff" d="M 138.457031 138.292969 C 137.78125 138.292969 137.105469 138.035156 136.589844 137.523438 L 3.886719 4.832031 C 2.855469 3.800781 2.855469 2.128906 3.886719 1.097656 C 4.917969 0.0664062 6.589844 0.0664062 7.621094 1.097656 L 140.328125 133.785156 C 141.355469 134.816406 141.355469 136.488281 140.328125 137.519531 C 139.8125 138.035156 139.132812 138.292969 138.457031 138.292969 Z M 138.457031 138.292969 " fill-opacity="1" fill-rule="nonzero"/></g><g clip-path="url(#7c7346cdab)"><path fill="#ffffff" d="M 5.753906 138.292969 C 4.292969 138.292969 3.113281 137.109375 3.113281 135.652344 L 3.140625 46.976562 C 3.140625 45.453125 4.050781 44.089844 5.460938 43.503906 C 6.871094 42.917969 8.480469 43.242188 9.558594 44.320312 L 52.507812 86.90625 C 53.542969 87.933594 53.550781 89.605469 52.523438 90.640625 C 51.496094 91.679688 49.824219 91.683594 48.789062 90.65625 L 8.421875 50.632812 L 8.394531 135.652344 C 8.394531 137.113281 7.210938 138.292969 5.753906 138.292969 Z M 5.828125 48.0625 C 5.832031 48.0625 5.835938 48.066406 5.835938 48.070312 Z M 5.828125 48.0625 " fill-opacity="1" fill-rule="nonzero"/></g><g clip-path="url(#d6db585048)"><path fill="#ffffff" d="M 138.457031 91.425781 C 137 91.425781 135.816406 90.242188 135.816406 88.785156 L 135.789062 7.726562 L 90.140625 53.03125 C 89.109375 54.058594 87.433594 54.050781 86.40625 53.019531 C 85.378906 51.984375 85.386719 50.308594 86.421875 49.285156 L 134.664062 1.402344 C 135.734375 0.332031 137.34375 0.0117188 138.75 0.597656 C 140.160156 1.179688 141.070312 2.542969 141.070312 4.066406 L 141.101562 88.78125 C 141.101562 90.242188 139.917969 91.421875 138.457031 91.425781 Z M 138.390625 5.144531 L 138.382812 5.152344 C 138.386719 5.148438 138.386719 5.148438 138.390625 5.144531 Z M 138.390625 5.144531 " fill-opacity="1" fill-rule="nonzero"/></g><g fill="#fffbfa" fill-opacity="1"><g transform="translate(21.886711, 162.248562)"><g><path d="M 3.109375 0 L 1.328125 0 C 1.140625 0 1.046875 -0.09375 1.046875 -0.28125 L 1.046875 -10.25 C 1.046875 -10.414062 1.078125 -10.539062 1.140625 -10.625 C 1.210938 -10.707031 1.300781 -10.738281 1.40625 -10.71875 C 1.507812 -10.695312 1.617188 -10.617188 1.734375 -10.484375 L 6.21875 -4.6875 L 10.734375 -10.484375 C 10.847656 -10.617188 10.957031 -10.695312 11.0625 -10.71875 C 11.164062 -10.738281 11.25 -10.707031 11.3125 -10.625 C 11.382812 -10.539062 11.421875 -10.414062 11.421875 -10.25 L 11.421875 -0.28125 C 11.421875 -0.09375 11.328125 0 11.140625 0 L 9.359375 0 C 9.171875 0 9.078125 -0.09375 9.078125 -0.28125 L 9.078125 -5.03125 L 6.421875 -1.734375 C 6.296875 -1.566406 6.164062 -1.566406 6.03125 -1.734375 L 3.390625 -5 L 3.390625 -0.28125 C 3.390625 -0.09375 3.296875 0 3.109375 0 Z M 3.109375 0 "/></g></g></g><g fill="#fffbfa" fill-opacity="1"><g transform="translate(45.535247, 162.248562)"><g><path d="M 5.359375 0.265625 C 4.773438 0.265625 4.21875 0.191406 3.6875 0.046875 C 3.15625 -0.0859375 2.679688 -0.304688 2.265625 -0.609375 C 1.859375 -0.910156 1.535156 -1.296875 1.296875 -1.765625 C 1.054688 -2.242188 0.9375 -2.816406 0.9375 -3.484375 L 0.9375 -10.203125 C 0.9375 -10.390625 1.03125 -10.484375 1.21875 -10.484375 L 3.109375 -10.484375 C 3.296875 -10.484375 3.390625 -10.390625 3.390625 -10.203125 L 3.390625 -4.046875 C 3.390625 -3.535156 3.460938 -3.117188 3.609375 -2.796875 C 3.765625 -2.484375 3.988281 -2.253906 4.28125 -2.109375 C 4.582031 -1.972656 4.941406 -1.90625 5.359375 -1.90625 C 5.785156 -1.90625 6.144531 -1.972656 6.4375 -2.109375 C 6.726562 -2.253906 6.953125 -2.484375 7.109375 -2.796875 C 7.265625 -3.117188 7.34375 -3.535156 7.34375 -4.046875 L 7.34375 -10.203125 C 7.34375 -10.390625 7.4375 -10.484375 7.625 -10.484375 L 9.5 -10.484375 C 9.6875 -10.484375 9.78125 -10.390625 9.78125 -10.203125 L 9.78125 -3.484375 C 9.78125 -2.816406 9.660156 -2.242188 9.421875 -1.765625 C 9.191406 -1.296875 8.875 -0.910156 8.46875 -0.609375 C 8.0625 -0.304688 7.59375 -0.0859375 7.0625 0.046875 C 6.53125 0.191406 5.960938 0.265625 5.359375 0.265625 Z M 5.359375 0.265625 "/></g></g></g><g fill="#fffbfa" fill-opacity="1"><g transform="translate(67.437776, 162.248562)"><g><path d="M 3.078125 0 L 1.328125 0 C 1.140625 0 1.046875 -0.09375 1.046875 -0.28125 L 1.046875 -10.234375 C 1.046875 -10.472656 1.113281 -10.625 1.25 -10.6875 C 1.382812 -10.757812 1.546875 -10.707031 1.734375 -10.53125 L 7.65625 -4.625 L 7.65625 -10.203125 C 7.65625 -10.390625 7.75 -10.484375 7.9375 -10.484375 L 9.6875 -10.484375 C 9.875 -10.484375 9.96875 -10.390625 9.96875 -10.203125 L 9.96875 -0.25 C 9.96875 -0.0820312 9.929688 0.0390625 9.859375 0.125 C 9.796875 0.207031 9.707031 0.238281 9.59375 0.21875 C 9.476562 0.207031 9.351562 0.132812 9.21875 0 L 3.359375 -5.984375 L 3.359375 -0.28125 C 3.359375 -0.09375 3.265625 0 3.078125 0 Z M 3.078125 0 "/></g></g></g><g fill="#fffbfa" fill-opacity="1"><g transform="translate(89.633577, 162.248562)"><g><path d="M 3.078125 0 L 1.328125 0 C 1.140625 0 1.046875 -0.09375 1.046875 -0.28125 L 1.046875 -10.234375 C 1.046875 -10.472656 1.113281 -10.625 1.25 -10.6875 C 1.382812 -10.757812 1.546875 -10.707031 1.734375 -10.53125 L 7.65625 -4.625 L 7.65625 -10.203125 C 7.65625 -10.390625 7.75 -10.484375 7.9375 -10.484375 L 9.6875 -10.484375 C 9.875 -10.484375 9.96875 -10.390625 9.96875 -10.203125 L 9.96875 -0.25 C 9.96875 -0.0820312 9.929688 0.0390625 9.859375 0.125 C 9.796875 0.207031 9.707031 0.238281 9.59375 0.21875 C 9.476562 0.207031 9.351562 0.132812 9.21875 0 L 3.359375 -5.984375 L 3.359375 -0.28125 C 3.359375 -0.09375 3.265625 0 3.078125 0 Z M 3.078125 0 "/></g></g></g><g fill="#fffbfa" fill-opacity="1"><g transform="translate(111.829384, 162.248562)"><g><path d="M 5.578125 -10.484375 L 10.25 -0.328125 C 10.289062 -0.234375 10.289062 -0.15625 10.25 -0.09375 C 10.21875 -0.03125 10.148438 0 10.046875 0 L 8.03125 0 C 7.875 0 7.765625 -0.0703125 7.703125 -0.21875 L 7.25 -1.375 L 3.21875 -1.375 L 2.75 -0.21875 C 2.695312 -0.0703125 2.59375 0 2.4375 0 L 0.421875 0 C 0.316406 0 0.242188 -0.03125 0.203125 -0.09375 C 0.171875 -0.15625 0.175781 -0.234375 0.21875 -0.328125 L 4.890625 -10.484375 C 4.984375 -10.679688 5.097656 -10.78125 5.234375 -10.78125 C 5.367188 -10.78125 5.484375 -10.679688 5.578125 -10.484375 Z M 5.234375 -6.4375 L 3.953125 -3.21875 L 6.515625 -3.21875 Z M 5.234375 -6.4375 "/></g></g></g></svg>